<?xml version="1.0" standalone="no"?>
<!DOCTYPE svg PUBLIC "-//W3C//DTD SVG 20010904//EN"
 "http://www.w3.org/TR/2001/REC-SVG-20010904/DTD/svg10.dtd">
<svg version="1.0" xmlns="http://www.w3.org/2000/svg"
 width="700.000000pt" height="700.000000pt" viewBox="0 0 700.000000 700.000000"
 preserveAspectRatio="xMidYMid meet">
<metadata>
Created by potrace 1.14, written by Peter Selinger 2001-2017
</metadata>
<g transform="translate(0.000000,700.000000) scale(0.100000,-0.100000)"
fill="#000000" stroke="none">
<path d="M771 6544 c-115 -31 -214 -106 -269 -204 -66 -119 -61 88 -61 -2608
-1 -1754 3 -2464 11 -2507 29 -158 148 -286 310 -336 60 -18 120 -18 1480 -19
780 0 1418 2 1418 4 0 2 -30 28 -67 59 -109 87 -218 202 -299 310 l-49 67
-1087 0 c-753 0 -1103 3 -1138 11 -59 13 -109 52 -127 99 -7 19 -11 69 -10
119 4 110 22 146 92 181 l50 25 997 1 c549 0 1000 3 1003 5 2 3 -5 34 -15 70
-11 35 -22 78 -25 94 -3 17 -8 41 -10 55 -3 14 -8 36 -10 50 -3 14 -8 54 -11
90 -4 36 -8 67 -11 70 -2 2 -271 5 -596 5 l-592 0 -1 1963 c0 1080 4 1966 8
1968 7 4 2726 8 3013 4 l40 0 0 -1029 c0 -566 2 -1032 5 -1034 3 -3 32 -7 65
-11 113 -10 291 -47 346 -70 11 -5 18 -1 20 11 3 15 3 2494 0 2556 -1 16 -111
17 -2213 16 -1898 0 -2221 -2 -2267 -15z m533 -427 c8 -3 11 -481 11 -1968 l0
-1964 -217 0 -218 0 -1 35 c-3 238 0 3891 4 3897 5 8 399 8 421 0z"/>
<path d="M4617 3714 c-1 -1 -36 -5 -76 -8 -41 -4 -78 -9 -81 -11 -3 -2 -26 -6
-50 -10 -70 -10 -245 -72 -340 -120 -177 -89 -315 -199 -465 -370 -99 -114
-218 -340 -261 -495 -28 -103 -29 -107 -39 -170 -3 -25 -9 -58 -11 -74 -8 -47
-7 -257 0 -316 12 -90 36 -199 63 -283 131 -418 486 -772 904 -905 109 -35
121 -38 239 -57 86 -14 348 -14 420 0 34 6 145 31 184 40 84 20 264 104 370
172 l69 45 336 -336 c185 -185 350 -344 366 -353 48 -26 151 -22 202 7 99 55
140 190 88 291 -8 15 -165 179 -349 365 l-334 337 45 69 c64 98 129 240 163
355 82 275 79 581 -10 850 -37 112 -122 295 -150 323 -3 3 -23 32 -45 65 -44
65 -214 243 -284 295 -200 153 -463 261 -694 286 -57 6 -255 12 -260 8z m288
-457 c152 -34 288 -98 402 -188 71 -57 203 -197 203 -216 0 -7 5 -13 10 -13 6
0 10 -4 10 -10 0 -5 13 -30 29 -55 16 -25 39 -73 51 -108 12 -34 26 -71 31
-82 32 -74 51 -265 37 -384 -27 -240 -119 -434 -282 -596 -193 -193 -434 -290
-711 -287 -87 1 -231 24 -267 43 -9 5 -24 9 -32 9 -9 0 -46 14 -83 32 -307
143 -504 399 -569 738 -10 53 -12 233 -3 287 15 96 19 113 50 200 123 351 434
596 819 646 61 7 241 -2 305 -16z"/>
</g>
</svg>
